# xmcd
#
# Track frame offsets:
#	150
#	12617
#	21700
#	36795
#	47687
#	58892
#	70922
#	87325
#	97465
#	107190
#
# Disc length: 1570 seconds
#
# Revision: 1
# Processed by: cddbd v1.4PL0 Copyright (c) Steve Scherf et al.
# Submitted via: EasyCDDAExtractor 5.1.0
#
DISCID=9606200a
DTITLE=John Lee Hooker - I'm In The Mood
DYEAR=1993
DGENRE=Blues
TTITLE0=I'm In The Mood
TTITLE1=Hobo Blues
TTITLE2=Crawling King Snake
TTITLE3=No Shoes
TTITLE4=Boom Boom
TTITLE5=Whiskey and Whimmen
TTITLE6=Process
TTITLE7=Dimples
TTITLE8=Onions
TTITLE9=Let's Make It
EXTD=
EXTT0=
EXTT1=
EXTT2=
EXTT3=
EXTT4=
EXTT5=
EXTT6=
EXTT7=
EXTT8=
EXTT9=
PLAYORDER=
